<?xml version="1.0" encoding="utf-8"?>
<!-- Generator: Adobe Illustrator 22.1.0, SVG Export Plug-In . SVG Version: 6.00 Build 0)  -->
<svg version="1.1" id="Layer_1" xmlns="http://www.w3.org/2000/svg" xmlns:xlink="http://www.w3.org/1999/xlink" x="0px" y="0px"
	 viewBox="0 0 80.9 80.9" style="enable-background:new 0 0 80.9 80.9;" xml:space="preserve" preserveAspectRatio="xMinYMid">
<style type="text/css">
	.st0{fill:#FFFFFF;}
</style>
<g>
	<polygon class="st0" points="33.4,75.8 33.4,75.8 33.4,75.8 	"/>
	<path class="st0" d="M0,61.7c0,5.1,2,10,5.6,13.6s8.5,5.6,13.6,5.6s10-2,13.6-5.6l12.7-12.7c0.9-0.9,0.9-2.4,0-3.2
		c-0.9-0.9-2.3-0.8-3.2,0L29.7,72.1c-2.8,2.8-6.5,4.4-10.4,4.4c-3.9,0-7.6-1.5-10.4-4.4c-5.8-5.8-5.8-15,0-20.9L23,37.1
		c5.8-5.8,15-5.8,20.9,0c0.7,0.9,1.6,1.9,2.7,2.1c1.2,0.2,2.4-0.6,2.6-1.8c0.1-0.6,0-1.4-0.4-2.1c-0.3-0.7-0.8-1.1-1.3-1.2l-0.2,0
		L47,33.9c-3.8-3.8-8.7-5.6-13.6-5.6c-4.9,0-9.9,1.9-13.6,5.6L5.6,48.1C2,51.7,0,56.5,0,61.7z"/>
	<path class="st0" d="M75.3,5.6c-7.5-7.5-19.7-7.5-27.2,0L35.3,18.4c-0.5,0.5-0.7,1.1-0.7,1.7s0.3,1.2,0.7,1.6
		c0.4,0.4,1,0.6,1.6,0.6c0,0,0,0,0,0c0.6,0,1.2-0.3,1.6-0.7L51.2,8.8C54,6,57.8,4.5,61.7,4.5c3.9,0,7.6,1.5,10.4,4.4
		c5.8,5.8,5.8,15,0,20.9L58,43.8c-5.8,5.8-15,5.8-20.9,0c-0.4-0.4-1-0.7-1.6-0.7c-0.6,0-1.2,0.2-1.6,0.7c-0.9,0.9-0.9,2.3,0,3.2
		c3.6,3.6,8.5,5.6,13.6,5.6s10-2,13.6-5.6l14.1-14.1C82.8,25.3,82.8,13.1,75.3,5.6z"/>
</g>
</svg>
