<?xml version="1.0" encoding="utf-8"?>
<!-- Generator: Adobe Illustrator 22.1.0, SVG Export Plug-In . SVG Version: 6.00 Build 0)  -->
<svg version="1.1" id="Layer_1" xmlns="http://www.w3.org/2000/svg" xmlns:xlink="http://www.w3.org/1999/xlink" x="0px" y="0px"
	 viewBox="0 0 87 93.5" style="enable-background:new 0 0 87 93.5;" xml:space="preserve" preserveAspectRatio="xMinYMid">
<style type="text/css">
	.st0{fill:#71B1E1;}
</style>
<g>
	<path class="st0" d="M84.6,12.7H58.2V8.2c0-4.5-3.6-8.2-8.2-8.2H35.6c-4.5,0-8.2,3.6-8.2,8.2v4.5H2.3C1,12.7,0,13.7,0,15
		s1,2.3,2.3,2.3h5.8l5.1,67.6c0.3,4.8,4.4,8.6,9.3,8.6h40.7c4.9,0,9-3.7,9.3-8.6l5.1-67.6h7c1.3,0,2.3-1,2.3-2.3
		S85.9,12.7,84.6,12.7z M32.2,8.2c0-2,1.5-3.5,3.5-3.5h14.6c2,0,3.5,1.5,3.5,3.5v4.5H32.2V8.2z M67.8,84.5c-0.2,2.4-2.2,4.3-4.7,4.3
		H22.6c-2.4,0-4.4-1.9-4.7-4.3l-5.1-67.2h14.7h4.7h21.6h4.7H73L67.8,84.5z"/>
	<path class="st0" d="M42.9,29.4c-1.3,0-2.3,1-2.3,2.3v43c0,1.3,1,2.3,2.3,2.3c1.3,0,2.3-1,2.3-2.3v-43
		C45.2,30.4,44.2,29.4,42.9,29.4z"/>
	<path class="st0" d="M55.7,31.6l-2.3,43c-0.1,1.3,0.9,2.3,2.2,2.4h0.1c1.3,0,2.2-0.9,2.3-2.2l2.3-43c0.1-1.3-0.9-2.3-2.2-2.4
		C56.8,29.4,55.8,30.3,55.7,31.6z"/>
	<path class="st0" d="M27.6,29.4c-1.3,0.1-2.2,1.2-2.2,2.4l2.3,43c0.1,1.3,1,2.2,2.3,2.2h0.1c1.3-0.1,2.2-1.2,2.2-2.4l-2.3-43
		C29.9,30.3,28.9,29.4,27.6,29.4z"/>
</g>
</svg>
