<?xml version="1.0" encoding="utf-8"?>
<!-- Generator: Adobe Illustrator 22.1.0, SVG Export Plug-In . SVG Version: 6.00 Build 0)  -->
<svg version="1.1" id="Layer_1" xmlns="http://www.w3.org/2000/svg" xmlns:xlink="http://www.w3.org/1999/xlink" x="0px" y="0px"
	 viewBox="0 0 90.7 90.6" style="enable-background:new 0 0 90.7 90.6;" xml:space="preserve" preserveAspectRatio="xMinYMid">
<style type="text/css">
	.st0{fill:#ffffff;}
</style>
<path class="st0" d="M85.9,5.1c-3.3-3.4-8-5.3-12.7-5.1c-4.8,0.1-9.3,2.1-12.7,5.5L3.6,62L0,88l0,0.5c0.1,1.1,1.1,2,2.3,2l0.3,0
	l14.4-2c1.2-0.1,2.1-1.2,2-2.6c-0.1-0.6-0.3-1.1-0.8-1.4c-0.5-0.4-1.2-0.6-1.8-0.5L5,85.7L7.5,68L26,86.5c0.9,0.9,2.4,0.9,3.3,0
	l55.6-55.4c3.7-3.6,5.8-8.7,5.8-13.8C90.7,12.6,89,8.2,85.9,5.1z M80.6,28.9L27.6,81.7L20,74l52.9-52.7L80.6,28.9z M69.7,18
	L16.7,70.8l-7.6-7.6L62,10.4L69.7,18z M82.6,8.4c4.2,4.3,4.6,11.6,1,17.1L65.4,7.3c2.3-1.7,5.1-2.6,7.8-2.7
	C76.8,4.5,80.2,5.9,82.6,8.4z"/>
</svg>
