<?xml version="1.0" encoding="utf-8"?>
<!-- Generator: Adobe Illustrator 22.1.0, SVG Export Plug-In . SVG Version: 6.00 Build 0)  -->
<svg version="1.1" id="Layer_1" xmlns="http://www.w3.org/2000/svg" xmlns:xlink="http://www.w3.org/1999/xlink" x="0px" y="0px"
	 viewBox="0 0 96.2 78.5" style="enable-background:new 0 0 96.2 78.5;" xml:space="preserve" preserveAspectRatio="xMinYMid">
<style type="text/css">
	.st0{fill:#6A6F72;}
</style>
<path class="st0" d="M96.1,1.5c0-0.2,0-0.3-0.1-0.5c-0.1-0.3-0.4-0.6-0.8-0.7C94.9,0,94.5,0,94.4,0H1.9C1.8,0,1.3,0,1,0.3
	C0.7,0.5,0.4,0.8,0.2,1.2C0,1.5,0,1.9,0,2.1v74.7c0,0.2,0,0.4,0.1,0.5V78h0.5l0.2,0.2c0,0,0,0,0,0l0.1,0.1h0
	c0.3,0.3,0.8,0.3,0.9,0.3h92.4c1.1,0,1.9-0.9,1.9-2.1V2.1C96.2,2,96.2,1.7,96.1,1.5z M92.5,7.5v64.8L59.4,45.6L92.5,7.5z M48.2,48.6
	c-2.1,0-4.2-1-5.7-2.8L6.6,4.3H90l-36,41.5C52.4,47.6,50.3,48.6,48.2,48.6z M39.8,48.8c2.3,2.6,5.3,4,8.4,4c3.2,0,6.1-1.4,8.4-4
	l31.7,25.5H7.9L39.8,48.8z M37,45.6L3.9,72.2V7.5L37,45.6z"/>
</svg>
